HIERARCHY
ROOT joint_0
{
	OFFSET 0.000000 0.000000 0.000000
	CHANNELS 6 Xposition Yposition Zposition Zrotation Yrotation Xrotation 
	JOINT joint_1
	{
		OFFSET 6.579712 -2.778931 100.531982
		CHANNELS 3 Zrotation Yrotation Xrotation
		JOINT joint_2
		{
			OFFSET -3.313232 -1.302856 91.974976
			CHANNELS 3 Zrotation Yrotation Xrotation
			JOINT joint_3
			{
				OFFSET -3.421509 -1.641846 91.864014
				CHANNELS 3 Zrotation Yrotation Xrotation
				JOINT joint_4
				{
					OFFSET 7.697388 -4.642578 123.278931
					CHANNELS 3 Zrotation Yrotation Xrotation
					JOINT joint_5
					{
						OFFSET 24.842529 -5.941528 79.695068
						CHANNELS 3 Zrotation Yrotation Xrotation
						End Site
						{
							OFFSET 0.000000 0.000000 0.000000
						}
					}
				}
				JOINT joint_6
				{
					OFFSET -0.159668 -29.112976 68.364014
					CHANNELS 3 Zrotation Yrotation Xrotation
					JOINT joint_7
					{
						OFFSET -18.356079 -115.987061 -20.069092
						CHANNELS 3 Zrotation Yrotation Xrotation
						JOINT joint_8
						{
							OFFSET 31.719482 -11.733276 -267.170898
							CHANNELS 3 Zrotation Yrotation Xrotation
							JOINT joint_9
							{
								OFFSET 29.329956 -5.879517 -234.654053
								CHANNELS 3 Zrotation Yrotation Xrotation
								End Site
								{
									OFFSET 0.000000 0.000000 0.000000
								}
							}
						}
					}
				}
				JOINT joint_10
				{
					OFFSET 8.802979 23.897949 69.798950
					CHANNELS 3 Zrotation Yrotation Xrotation
					JOINT joint_11
					{
						OFFSET 21.159058 115.524292 -19.981934
						CHANNELS 3 Zrotation Yrotation Xrotation
						JOINT joint_12
						{
							OFFSET 18.809204 5.403442 -268.593018
							CHANNELS 3 Zrotation Yrotation Xrotation
							JOINT joint_13
							{
								OFFSET 20.807861 0.421265 -235.639038
								CHANNELS 3 Zrotation Yrotation Xrotation
								End Site
								{
									OFFSET 0.000000 0.000000 0.000000
								}
							}
						}
					}
				}
			}
		}
	}
	JOINT joint_14
	{
		OFFSET -9.713379 -79.513916 -99.348022
		CHANNELS 3 Zrotation Yrotation Xrotation
		JOINT joint_15
		{
			OFFSET -40.607788 -6.518372 -502.938019
			CHANNELS 3 Zrotation Yrotation Xrotation
			JOINT joint_16
			{
				OFFSET -19.807617 -7.437378 -399.590012
				CHANNELS 3 Zrotation Yrotation Xrotation
				JOINT joint_17
				{
					OFFSET 171.701660 -44.751282 -77.782000
					CHANNELS 3 Zrotation Yrotation Xrotation
					End Site
					{
						OFFSET 0.000000 0.000000 0.000000
					}
				}
			}
		}
	}
	JOINT joint_18
	{
		OFFSET 17.854858 79.618652 -98.128052
		CHANNELS 3 Zrotation Yrotation Xrotation
		JOINT joint_19
		{
			OFFSET -24.848877 16.861816 -503.722992
			CHANNELS 3 Zrotation Yrotation Xrotation
			JOINT joint_20
			{
				OFFSET -30.162476 14.470093 -398.750008
				CHANNELS 3 Zrotation Yrotation Xrotation
				JOINT joint_21
				{
					OFFSET 176.096680 -10.987549 -80.021000
					CHANNELS 3 Zrotation Yrotation Xrotation
					End Site
					{
						OFFSET 0.000000 0.000000 0.000000
					}
				}
			}
		}
	}
}
MOTION
Frames: 5
Frame Time: 0.016667
-2125.299316 800.702271 1105.009033 -7.494016 3.897850 0.829057 -0.026352 -0.667076 1.597691 0.209635 0.234164 -0.234711 0.250329 -0.253610 0.197963 -3.372206 -8.751389 9.193242 0.000000 0.000000 0.000000 -11.864834 8.762316 -9.258305 12.753438 -0.569762 6.631883 -170.327596 -75.743329 163.914606 0.000000 0.000000 0.000000 12.759411 8.171335 8.953558 -3.621652 11.113634 -11.223800 175.488107 -78.608694 167.705023 0.000000 0.000000 0.000000 5.577633 -9.155613 -9.946380 3.231401 34.413121 12.250939 4.602487 -7.755246 -0.185306 0.000000 0.000000 0.000000 2.826062 3.004922 -1.675351 2.736684 12.392440 1.880913 2.335407 -2.142178 0.849110 0.000000 0.000000 0.000000 
-2117.318359 801.001221 1103.686035 -7.883152 4.277238 0.990692 -0.143367 -0.855369 1.586539 0.143666 0.233257 -0.222699 0.184227 -0.267299 0.206902 -3.349041 -8.630526 9.209619 0.000000 0.000000 0.000000 -11.464887 7.836149 -9.318622 12.067061 -0.978311 5.933983 -170.441612 -76.368073 164.767131 0.000000 0.000000 0.000000 12.596811 8.183058 8.992859 -3.282750 11.205655 -11.516208 175.715249 -78.339328 167.407125 0.000000 0.000000 0.000000 4.681539 -10.694358 -10.562711 2.237553 36.234426 12.170331 2.581121 -8.448950 -1.173143 0.000000 0.000000 0.000000 2.980627 2.963080 -1.986855 2.866505 12.674534 1.891351 2.452676 -2.229853 0.888344 0.000000 0.000000 0.000000 
-2108.974854 800.534058 1102.307007 -7.972255 4.851431 1.146138 -0.356815 -1.257425 1.670043 0.013335 0.267519 -0.275608 0.069446 -0.311892 0.237728 -3.329229 -8.521545 9.214944 0.000000 0.000000 0.000000 -11.086711 7.050723 -9.324310 11.474887 -1.269091 5.225511 -170.563268 -76.664906 165.569028 0.000000 0.000000 0.000000 12.314190 8.276365 9.020332 -2.910287 11.308925 -11.721340 175.998854 -78.070715 167.207596 0.000000 0.000000 0.000000 3.237838 -12.171074 -10.813304 0.727579 36.945592 11.388836 -0.305516 -9.438184 -2.569672 0.000000 0.000000 0.000000 3.047037 2.758260 -2.186307 2.954541 12.842347 1.811147 2.525237 -2.304720 0.910071 0.000000 0.000000 0.000000 
-2100.493408 799.481812 1100.994019 -8.081994 5.579371 1.314990 -0.533969 -1.804708 1.772456 -0.080944 0.324507 -0.337201 -0.003425 -0.380660 0.265055 -3.315304 -8.427368 9.221792 0.000000 0.000000 0.000000 -10.791982 6.300221 -9.323715 10.739807 -1.522357 4.419886 -170.744458 -77.155941 166.622767 0.000000 0.000000 0.000000 12.120162 8.367179 9.062145 -2.567205 11.341010 -11.775487 176.319769 -78.094533 167.162880 0.000000 0.000000 0.000000 2.093451 -13.680027 -10.838880 -0.488256 36.735857 10.440860 -2.525273 -10.523033 -3.733075 0.000000 0.000000 0.000000 3.096677 2.373784 -2.371677 3.057026 13.051130 1.712370 2.599496 -2.338023 0.935306 0.000000 0.000000 0.000000 
-2091.807129 797.882874 1099.894043 -8.393237 6.532533 1.495636 -0.595548 -2.565295 1.866301 -0.092600 0.408561 -0.387773 0.003869 -0.496241 0.281093 -3.311014 -8.350351 9.240776 0.000000 0.000000 0.000000 -10.633152 5.549855 -9.346730 9.727986 -1.786051 3.419516 -171.007225 -78.066439 168.095169 0.000000 0.000000 0.000000 12.173556 8.445645 9.142140 -2.324218 11.287047 -11.668665 176.650310 -78.578517 167.391335 0.000000 0.000000 0.000000 1.530113 -15.298429 -10.656423 -1.141885 35.472990 9.424177 -3.532922 -11.600458 -4.427269 0.000000 0.000000 0.000000 3.187513 1.808184 -2.581026 3.214132 13.169769 1.590493 2.715395 -2.239620 0.986708 0.000000 0.000000 0.000000 
